<svg id="visual" viewBox="0 0 900 900" width="900" height="900" xmlns="http://www.w3.org/2000/svg" xmlns:xlink="http://www.w3.org/1999/xlink" version="1.1"><rect x="0" y="0" width="900" height="900" fill="#ffffff"></rect><defs><linearGradient id="grad1_0" x1="0%" y1="0%" x2="100%" y2="100%"><stop offset="30%" stop-color="#001122" stop-opacity="1"></stop><stop offset="70%" stop-color="#001122" stop-opacity="1"></stop></linearGradient></defs><defs><linearGradient id="grad1_1" x1="0%" y1="0%" x2="100%" y2="100%"><stop offset="30%" stop-color="#001122" stop-opacity="1"></stop><stop offset="70%" stop-color="#2f3948" stop-opacity="1"></stop></linearGradient></defs><defs><linearGradient id="grad1_2" x1="0%" y1="0%" x2="100%" y2="100%"><stop offset="30%" stop-color="#5e6672" stop-opacity="1"></stop><stop offset="70%" stop-color="#2f3948" stop-opacity="1"></stop></linearGradient></defs><defs><linearGradient id="grad1_3" x1="0%" y1="0%" x2="100%" y2="100%"><stop offset="30%" stop-color="#5e6672" stop-opacity="1"></stop><stop offset="70%" stop-color="#91969f" stop-opacity="1"></stop></linearGradient></defs><defs><linearGradient id="grad1_4" x1="0%" y1="0%" x2="100%" y2="100%"><stop offset="30%" stop-color="#c7c9ce" stop-opacity="1"></stop><stop offset="70%" stop-color="#91969f" stop-opacity="1"></stop></linearGradient></defs><defs><linearGradient id="grad1_5" x1="0%" y1="0%" x2="100%" y2="100%"><stop offset="30%" stop-color="#c7c9ce" stop-opacity="1"></stop><stop offset="70%" stop-color="#ffffff" stop-opacity="1"></stop></linearGradient></defs><defs><linearGradient id="grad2_0" x1="0%" y1="0%" x2="100%" y2="100%"><stop offset="30%" stop-color="#001122" stop-opacity="1"></stop><stop offset="70%" stop-color="#001122" stop-opacity="1"></stop></linearGradient></defs><defs><linearGradient id="grad2_1" x1="0%" y1="0%" x2="100%" y2="100%"><stop offset="30%" stop-color="#2f3948" stop-opacity="1"></stop><stop offset="70%" stop-color="#001122" stop-opacity="1"></stop></linearGradient></defs><defs><linearGradient id="grad2_2" x1="0%" y1="0%" x2="100%" y2="100%"><stop offset="30%" stop-color="#2f3948" stop-opacity="1"></stop><stop offset="70%" stop-color="#5e6672" stop-opacity="1"></stop></linearGradient></defs><defs><linearGradient id="grad2_3" x1="0%" y1="0%" x2="100%" y2="100%"><stop offset="30%" stop-color="#91969f" stop-opacity="1"></stop><stop offset="70%" stop-color="#5e6672" stop-opacity="1"></stop></linearGradient></defs><defs><linearGradient id="grad2_4" x1="0%" y1="0%" x2="100%" y2="100%"><stop offset="30%" stop-color="#91969f" stop-opacity="1"></stop><stop offset="70%" stop-color="#c7c9ce" stop-opacity="1"></stop></linearGradient></defs><defs><linearGradient id="grad2_5" x1="0%" y1="0%" x2="100%" y2="100%"><stop offset="30%" stop-color="#ffffff" stop-opacity="1"></stop><stop offset="70%" stop-color="#c7c9ce" stop-opacity="1"></stop></linearGradient></defs><g transform="translate(900, 0)"><path d="M0 381.8C-29.1 366.4 -58.2 351 -92.9 346.8C-127.6 342.5 -168 349.5 -190.9 330.7C-213.8 311.9 -219.2 267.3 -240.4 240.4C-261.6 213.5 -298.5 204.2 -313.5 181C-328.5 157.8 -321.6 120.7 -329.4 88.3C-337.1 55.8 -359.5 27.9 -381.8 0L0 0Z" fill="#e2e4e6"></path><path d="M0 318.2C-24.2 305.4 -48.5 292.5 -77.4 289C-106.4 285.4 -140 291.2 -159.1 275.6C-178.2 259.9 -182.7 222.8 -200.3 200.3C-218 177.9 -248.7 170.2 -261.3 150.8C-273.8 131.5 -268 100.6 -274.5 73.5C-280.9 46.5 -299.6 23.2 -318.2 0L0 0Z" fill="#abafb6"></path><path d="M0 254.6C-19.4 244.3 -38.8 234 -61.9 231.2C-85.1 228.4 -112 233 -127.3 220.5C-142.5 207.9 -146.2 178.2 -160.3 160.3C-174.4 142.3 -199 136.1 -209 120.7C-219 105.2 -214.4 80.5 -219.6 58.8C-224.7 37.2 -239.7 18.6 -254.6 0L0 0Z" fill="#777d88"></path><path d="M0 190.9C-14.5 183.2 -29.1 175.5 -46.5 173.4C-63.8 171.3 -84 174.7 -95.5 165.3C-106.9 155.9 -109.6 133.7 -120.2 120.2C-130.8 106.7 -149.2 102.1 -156.8 90.5C-164.3 78.9 -160.8 60.4 -164.7 44.1C-168.6 27.9 -179.7 13.9 -190.9 0L0 0Z" fill="#464f5d"></path><path d="M0 127.3C-9.7 122.1 -19.4 117 -31 115.6C-42.5 114.2 -56 116.5 -63.6 110.2C-71.3 104 -73.1 89.1 -80.1 80.1C-87.2 71.2 -99.5 68.1 -104.5 60.3C-109.5 52.6 -107.2 40.2 -109.8 29.4C-112.4 18.6 -119.8 9.3 -127.3 0L0 0Z" fill="#182535"></path><path d="M0 63.6C-4.8 61.1 -9.7 58.5 -15.5 57.8C-21.3 57.1 -28 58.2 -31.8 55.1C-35.6 52 -36.5 44.6 -40.1 40.1C-43.6 35.6 -49.7 34 -52.3 30.2C-54.8 26.3 -53.6 20.1 -54.9 14.7C-56.2 9.3 -59.9 4.6 -63.6 0L0 0Z" fill="#001122"></path></g><g transform="translate(0, 900)"><path d="M0 -381.8C28.4 -362.3 56.8 -342.7 90.6 -338.1C124.4 -333.4 163.7 -343.7 190.9 -330.7C218.2 -317.6 233.4 -281.2 253.9 -253.9C274.3 -226.5 300 -208.2 317 -183C333.9 -157.8 342.2 -125.8 351.6 -94.2C361 -62.6 371.4 -31.3 381.8 0L0 0Z" fill="#e2e4e6"></path><path d="M0 -318.2C23.7 -301.9 47.3 -285.6 75.5 -281.7C103.7 -277.9 136.4 -286.4 159.1 -275.6C181.8 -264.7 194.5 -234.3 211.5 -211.5C228.6 -188.7 250 -173.5 264.1 -152.5C278.3 -131.5 285.2 -104.9 293 -78.5C300.8 -52.1 309.5 -26.1 318.2 0L0 0Z" fill="#abafb6"></path><path d="M0 -254.6C18.9 -241.5 37.8 -228.5 60.4 -225.4C82.9 -222.3 109.1 -229.2 127.3 -220.5C145.4 -211.8 155.6 -187.5 169.2 -169.2C182.9 -151 200 -138.8 211.3 -122C222.6 -105.2 228.2 -83.9 234.4 -62.8C240.6 -41.7 247.6 -20.9 254.6 0L0 0Z" fill="#777d88"></path><path d="M0 -190.9C14.2 -181.1 28.4 -171.4 45.3 -169C62.2 -166.7 81.8 -171.9 95.5 -165.3C109.1 -158.8 116.7 -140.6 126.9 -126.9C137.2 -113.2 150 -104.1 158.5 -91.5C167 -78.9 171.1 -62.9 175.8 -47.1C180.5 -31.3 185.7 -15.6 190.9 0L0 0Z" fill="#464f5d"></path><path d="M0 -127.3C9.5 -120.8 18.9 -114.2 30.2 -112.7C41.5 -111.1 54.6 -114.6 63.6 -110.2C72.7 -105.9 77.8 -93.7 84.6 -84.6C91.4 -75.5 100 -69.4 105.7 -61C111.3 -52.6 114.1 -41.9 117.2 -31.4C120.3 -20.9 123.8 -10.4 127.3 0L0 0Z" fill="#182535"></path><path d="M0 -63.6C4.7 -60.4 9.5 -57.1 15.1 -56.3C20.7 -55.6 27.3 -57.3 31.8 -55.1C36.4 -52.9 38.9 -46.9 42.3 -42.3C45.7 -37.7 50 -34.7 52.8 -30.5C55.7 -26.3 57 -21 58.6 -15.7C60.2 -10.4 61.9 -5.2 63.6 0L0 0Z" fill="#001122"></path></g></svg>